<svg xmlns="http://www.w3.org/2000/svg" width="164.548" height="50.359" viewBox="0 0 164.548 50.359">
  <g id="ESS_logo_new" transform="translate(-61.478 -60.488)">
    <g id="Group_5628" data-name="Group 5628" transform="translate(61.478 60.488)">
      <path id="Path_2355" data-name="Path 2355" d="M175.35,61.279h-5.259a.767.767,0,0,0-.767.767V87.9a.768.768,0,0,0,.767.767h5.259a.768.768,0,0,0,.767-.767V62.046a.767.767,0,0,0-.767-.767" transform="translate(-118.93 -60.909)" fill="#fff"/>
      <path id="Path_2356" data-name="Path 2356" d="M81.964,61.28H65.094a3.62,3.62,0,0,0-3.616,3.615V85.053a3.62,3.62,0,0,0,3.616,3.615H81.964a.768.768,0,0,0,.767-.768V84.834a.768.768,0,0,0-.767-.767H69.053a.769.769,0,0,1-.767-.765l-.011-6.027H78.459a.767.767,0,0,0,.766-.767V73.44a.767.767,0,0,0-.766-.766H68.275l.011-6.027a.77.77,0,0,1,.767-.766H81.964a.767.767,0,0,0,.767-.765V62.047a.767.767,0,0,0-.767-.767" transform="translate(-61.478 -60.91)" fill="#fff"/>
      <path id="Path_2357" data-name="Path 2357" d="M387.125,61.279H366.091a.767.767,0,0,0-.767.767v3.069a.767.767,0,0,0,.767.765h7.121V87.9a.767.767,0,0,0,.766.767h5.258A.768.768,0,0,0,380,87.9V65.88h7.121a.767.767,0,0,0,.766-.765V62.046a.767.767,0,0,0-.766-.767" transform="translate(-223.343 -60.909)" fill="#fff"/>
      <path id="Path_2358" data-name="Path 2358" d="M133.92,61.279H112.885a.767.767,0,0,0-.766.767v3.069a.767.767,0,0,0,.766.765h7.122V87.9a.767.767,0,0,0,.766.767h5.258a.768.768,0,0,0,.767-.767V65.88h7.121a.767.767,0,0,0,.766-.765V62.046a.767.767,0,0,0-.766-.767" transform="translate(-88.456 -60.909)" fill="#fff"/>
      <path id="Path_2359" data-name="Path 2359" d="M337.131,61.279H321.158a3.619,3.619,0,0,0-3.615,3.615V87.923a.768.768,0,0,0,.766.767H323.8a.55.55,0,0,0,.55-.548V79.465H334.5a.768.768,0,0,0,.767-.768V75.63a.767.767,0,0,0-.767-.766H324.348V66.646a.772.772,0,0,1,.769-.766h12.014a.767.767,0,0,0,.767-.765V62.046a.768.768,0,0,0-.767-.767" transform="translate(-197.889 -60.909)" fill="#fff"/>
      <path id="Path_2360" data-name="Path 2360" d="M210.552,72.584c-.444-.09-.91-.184-1.4-.286-5.775-1.209-6.869-1.955-6.869-2.908v-2.2c0-1.808,2.137-1.952,4.932-1.952a41.31,41.31,0,0,1,9.15,1.022.767.767,0,0,0,.912-.551l.784-2.969a.758.758,0,0,0-.082-.585.768.768,0,0,0-.481-.357,45.813,45.813,0,0,0-11.643-1.167c-4.363,0-6.854.43-8.327,1.436-1.385.945-1.949,2.435-1.949,5.143v1.745c0,6.59,2.954,7.211,8.318,8.335l.778.164c5.321,1.13,6.855,1.52,6.855,2.947v1.8c0,1.808-2.137,1.951-4.933,1.951a41.3,41.3,0,0,1-9.149-1.022.768.768,0,0,0-.912.551l-.784,2.968a.768.768,0,0,0,.563.942,45.817,45.817,0,0,0,11.644,1.166c4.363,0,6.853-.429,8.326-1.435,1.385-.945,1.949-2.435,1.949-5.144v-2.24c0-5.8-2.249-6.254-7.685-7.357" transform="translate(-132.918 -60.564)" fill="#fff"/>
      <path id="Path_2361" data-name="Path 2361" d="M266.324,84.607c-5.812-.18-5.812-3.254-5.812-9.987,0-6.713,0-9.777,5.807-9.951,5.806.174,5.806,3.233,5.806,9.951v.022c0,6.719,0,9.785-5.8,9.965m0-24.119c-12.062,0-12.6,3.156-12.6,14.1,0,10.991.537,14.161,12.6,14.161,6.367,0,9.451-.823,11-2.938,1.6-2.177,1.6-5.776,1.6-11.223s0-9.033-1.594-11.194c-1.564-2.121-4.547-2.909-11-2.909" transform="translate(-163.892 -60.488)" fill="#fff"/>
    </g>
    <g id="Group_5629" data-name="Group 5629" transform="translate(61.82 97.29)">
      <path id="Path_2362" data-name="Path 2362" d="M66.767,141.123q-2.432,0-2.432,1.7a1.383,1.383,0,0,0,.574,1.255,11.013,11.013,0,0,0,2.537.919,6.758,6.758,0,0,1,2.767,1.3,3.138,3.138,0,0,1,.8,2.384,3.881,3.881,0,0,1-1.178,3.092,4.721,4.721,0,0,1-3.207,1.024,19,19,0,0,1-3.6-.383l-.689-.134.211-1.7a32.277,32.277,0,0,0,3.944.344q2.374,0,2.374-2.106a1.408,1.408,0,0,0-.536-1.216,8.2,8.2,0,0,0-2.413-.862,6.558,6.558,0,0,1-2.8-1.292,3.331,3.331,0,0,1-.919-2.6,3.21,3.21,0,0,1,1.158-2.69,5.072,5.072,0,0,1,3.207-.91,21.03,21.03,0,0,1,3.485.345l.67.115-.172,1.723Q67.877,141.123,66.767,141.123Z" transform="translate(-62.21 -139.246)" fill="#fff"/>
      <path id="Path_2363" data-name="Path 2363" d="M86.386,152.855V139.739h3.7l2.93,10.243,2.929-10.243h3.714v13.116H97.51v-10.76h-.287l-3.1,10.224H91.9l-3.1-10.224h-.287v10.76Z" transform="translate(-75.089 -139.509)" fill="#fff"/>
      <path id="Path_2364" data-name="Path 2364" d="M119.207,152.855l3.236-13.116h4.231l3.255,13.116h-2.144l-.708-2.815h-5.036l-.708,2.815Zm4.883-11.335-1.627,6.644h4.193l-1.608-6.644Z" transform="translate(-92.574 -139.509)" fill="#fff"/>
      <path id="Path_2365" data-name="Path 2365" d="M148.705,148.183v4.672H146.58V139.739h4.978q4.442,0,4.442,4.174a3.78,3.78,0,0,1-2.144,3.791l2.164,5.151h-2.336l-1.9-4.672Zm5.112-4.251q0-2.355-2.259-2.355h-2.853v4.768H151.6a2.044,2.044,0,0,0,1.685-.661A2.7,2.7,0,0,0,153.818,143.932Z" transform="translate(-107.156 -139.509)" fill="#fff"/>
      <path id="Path_2366" data-name="Path 2366" d="M169.445,141.634v-1.9h9.574v1.9h-3.7v11.22h-2.144v-11.22Z" transform="translate(-119.336 -139.509)" fill="#fff"/>
      <path id="Path_2367" data-name="Path 2367" d="M206.577,141.123q-2.432,0-2.432,1.7a1.383,1.383,0,0,0,.574,1.255,11.014,11.014,0,0,0,2.537.919,6.758,6.758,0,0,1,2.767,1.3,3.138,3.138,0,0,1,.8,2.384,3.88,3.88,0,0,1-1.178,3.092,4.721,4.721,0,0,1-3.207,1.024,19,19,0,0,1-3.6-.383l-.689-.134.211-1.7a32.286,32.286,0,0,0,3.944.344q2.374,0,2.375-2.106a1.408,1.408,0,0,0-.536-1.216,8.2,8.2,0,0,0-2.413-.862,6.552,6.552,0,0,1-2.8-1.292,3.329,3.329,0,0,1-.919-2.6,3.21,3.21,0,0,1,1.158-2.69,5.072,5.072,0,0,1,3.207-.91,21.025,21.025,0,0,1,3.485.345l.67.115-.172,1.723Q207.687,141.123,206.577,141.123Z" transform="translate(-136.69 -139.246)" fill="#fff"/>
      <path id="Path_2368" data-name="Path 2368" d="M234.453,151.216q-1.177,1.609-4.145,1.608t-4.155-1.618a8.662,8.662,0,0,1-1.187-5.084,8.948,8.948,0,0,1,1.2-5.151q1.2-1.684,4.146-1.685t4.136,1.675a9,9,0,0,1,1.187,5.161A8.713,8.713,0,0,1,234.453,151.216Zm-6.634-1.378a3.317,3.317,0,0,0,4.969.019,7.9,7.9,0,0,0,.642-3.724,8.193,8.193,0,0,0-.661-3.8,3.153,3.153,0,0,0-4.93,0,8.036,8.036,0,0,0-.671,3.782A7.862,7.862,0,0,0,227.819,149.838Z" transform="translate(-148.914 -139.268)" fill="#fff"/>
      <path id="Path_2369" data-name="Path 2369" d="M260.837,152.855h-7.352V139.739h2.125v11.22h5.227Z" transform="translate(-164.106 -139.509)" fill="#fff"/>
      <path id="Path_2370" data-name="Path 2370" d="M274.889,148.661q0,2.546,2.68,2.546t2.68-2.546v-8.922h2.145v8.884a4.267,4.267,0,0,1-1.216,3.38,6.677,6.677,0,0,1-7.228,0,4.284,4.284,0,0,1-1.206-3.38v-8.884h2.145Z" transform="translate(-174.366 -139.509)" fill="#fff"/>
      <path id="Path_2371" data-name="Path 2371" d="M297.33,141.634v-1.9H306.9v1.9h-3.7v11.22h-2.144v-11.22Z" transform="translate(-187.463 -139.509)" fill="#fff"/>
      <path id="Path_2372" data-name="Path 2372" d="M322,152.855V139.739h2.125v13.116Z" transform="translate(-200.605 -139.509)" fill="#fff"/>
      <path id="Path_2373" data-name="Path 2373" d="M341.688,151.216q-1.178,1.609-4.145,1.608t-4.155-1.618a8.663,8.663,0,0,1-1.187-5.084,8.944,8.944,0,0,1,1.2-5.151q1.2-1.684,4.146-1.685t4.135,1.675a9,9,0,0,1,1.187,5.161A8.717,8.717,0,0,1,341.688,151.216Zm-6.635-1.378a3.317,3.317,0,0,0,4.969.019,7.9,7.9,0,0,0,.641-3.724,8.194,8.194,0,0,0-.66-3.8,3.153,3.153,0,0,0-4.931,0,8.043,8.043,0,0,0-.67,3.782A7.876,7.876,0,0,0,335.053,149.838Z" transform="translate(-206.039 -139.268)" fill="#fff"/>
      <path id="Path_2374" data-name="Path 2374" d="M360.719,152.855V139.739h3.715l3.983,11.239h.287V139.739h2.126v13.116h-3.638L363.113,141.6h-.269v11.259Z" transform="translate(-221.232 -139.509)" fill="#fff"/>
      <path id="Path_2375" data-name="Path 2375" d="M392.279,141.123q-2.432,0-2.432,1.7a1.381,1.381,0,0,0,.575,1.255,11.007,11.007,0,0,0,2.536.919,6.757,6.757,0,0,1,2.767,1.3,3.138,3.138,0,0,1,.8,2.384,3.879,3.879,0,0,1-1.178,3.092,4.72,4.72,0,0,1-3.207,1.024,18.993,18.993,0,0,1-3.6-.383l-.689-.134.211-1.7a32.272,32.272,0,0,0,3.944.344q2.375,0,2.374-2.106a1.409,1.409,0,0,0-.536-1.216,8.2,8.2,0,0,0-2.412-.862,6.56,6.56,0,0,1-2.8-1.292,3.333,3.333,0,0,1-.919-2.6,3.212,3.212,0,0,1,1.159-2.69,5.072,5.072,0,0,1,3.207-.91,21.021,21.021,0,0,1,3.485.345l.67.115-.172,1.723Q393.389,141.123,392.279,141.123Z" transform="translate(-235.617 -139.246)" fill="#fff"/>
    </g>
  </g>
</svg>
