<svg width="64" height="64" viewBox="0 0 64 64" xmlns="http://www.w3.org/2000/svg">
  <!-- Start point -->
  <circle cx="12" cy="32" r="4" fill="#4A90E2" stroke="#2C5282" stroke-width="2"/>
  
  <!-- Movement path arrow -->
  <path d="M20 32 L44 32" stroke="#E53E3E" stroke-width="4" stroke-linecap="round"/>
  <path d="M38 26 L44 32 L38 38" stroke="#E53E3E" stroke-width="4" fill="none" stroke-linecap="round" stroke-linejoin="round"/>
  
  <!-- Destination pin/marker -->
  <path d="M48 18 C51.3 18 54 20.7 54 24 C54 28 48 36 48 36 C48 36 42 28 42 24 C42 20.7 44.7 18 48 18 Z" fill="#E53E3E"/>
  <circle cx="48" cy="24" r="3" fill="white"/>
  
  <!-- Dotted path line -->
  <path d="M16 32 Q32 28 44 32" stroke="#A0AEC0" stroke-width="2" fill="none" stroke-dasharray="3,3"/>
  
  <!-- Motion indicator lines -->
  <line x1="22" y1="28" x2="26" y2="28" stroke="#48BB78" stroke-width="2" stroke-linecap="round"/>
  <line x1="28" y1="30" x2="32" y2="30" stroke="#48BB78" stroke-width="2" stroke-linecap="round"/>
  <line x1="34" y1="28" x2="38" y2="28" stroke="#48BB78" stroke-width="2" stroke-linecap="round"/>
</svg>